<svg width="224" height="52" viewBox="0 0 224 52" fill="none" xmlns="http://www.w3.org/2000/svg">
<path d="M0.675 40V0.949998H5.625V17.835H10.85L23.72 0.949998H29.44L14.92 19.87L30.43 40H24.38L10.96 22.345H5.625V40H0.675ZM47.544 40.55C44.684 40.55 42.154 39.8717 39.954 38.515C37.7907 37.1217 36.104 35.3067 34.894 33.07C33.684 30.7967 33.079 28.34 33.079 25.7C33.079 23.0233 33.684 20.5667 34.894 18.33C36.1407 16.0567 37.8457 14.2417 40.009 12.885C42.209 11.4917 44.7207 10.795 47.544 10.795C50.404 10.795 52.9157 11.4917 55.079 12.885C57.279 14.2417 58.984 16.0567 60.194 18.33C61.4407 20.5667 62.064 23.0233 62.064 25.7C62.064 28.34 61.4407 30.7967 60.194 33.07C58.984 35.3067 57.2974 37.1217 55.134 38.515C52.9707 39.8717 50.4407 40.55 47.544 40.55ZM38.029 25.755C38.029 27.735 38.4507 29.5317 39.294 31.145C40.174 32.7583 41.329 34.0417 42.759 34.995C44.189 35.9117 45.784 36.37 47.544 36.37C49.304 36.37 50.899 35.8933 52.329 34.94C53.7957 33.9867 54.9507 32.7033 55.794 31.09C56.674 29.44 57.114 27.625 57.114 25.645C57.114 23.665 56.674 21.8683 55.794 20.255C54.9507 18.6417 53.7957 17.3583 52.329 16.405C50.899 15.4517 49.304 14.975 47.544 14.975C45.784 14.975 44.189 15.47 42.759 16.46C41.329 17.4133 40.174 18.6967 39.294 20.31C38.4507 21.9233 38.029 23.7383 38.029 25.755ZM84.4838 40.55C82.1372 40.55 80.0472 39.9633 78.2138 38.79C76.3805 37.6167 74.9322 36.1317 73.8688 34.335V51.715H69.0288V11.29H73.3188V16.68C74.4555 14.92 75.9405 13.5083 77.7738 12.445C79.6072 11.345 81.6055 10.795 83.7688 10.795C85.7488 10.795 87.5638 11.1983 89.2138 12.005C90.8638 12.8117 92.2938 13.9117 93.5038 15.305C94.7138 16.6983 95.6488 18.2933 96.3088 20.09C97.0055 21.85 97.3538 23.7017 97.3538 25.645C97.3538 28.3583 96.8038 30.8517 95.7038 33.125C94.6405 35.3983 93.1372 37.2133 91.1938 38.57C89.2505 39.89 87.0138 40.55 84.4838 40.55ZM82.9988 36.37C84.9055 36.37 86.5555 35.8567 87.9488 34.83C89.3422 33.8033 90.4238 32.465 91.1938 30.815C92.0005 29.165 92.4038 27.4417 92.4038 25.645C92.4038 23.7017 91.9638 21.9233 91.0838 20.31C90.2405 18.6967 89.0672 17.4133 87.5638 16.46C86.0972 15.47 84.4288 14.975 82.5588 14.975C81.4222 14.975 80.2122 15.2683 78.9288 15.855C77.6822 16.4417 76.5822 17.23 75.6288 18.22C74.7122 19.1733 74.1255 20.2367 73.8688 21.41V29.605C74.6755 31.5117 75.9038 33.125 77.5538 34.445C79.2405 35.7283 81.0555 36.37 82.9988 36.37ZM113.361 40.385C110.575 40.385 108.21 39.8717 106.266 38.845C104.36 37.7817 102.893 36.315 101.866 34.445L105.826 32.685C106.486 33.8583 107.421 34.775 108.631 35.435C109.878 36.095 111.381 36.425 113.141 36.425C115.231 36.425 116.881 35.9667 118.091 35.05C119.301 34.1333 119.906 32.905 119.906 31.365C119.906 29.9717 119.411 28.8533 118.421 28.01C117.468 27.13 116.111 26.6717 114.351 26.635H111.436V23.445H114.516C115.69 23.445 116.643 23.0417 117.376 22.235C118.146 21.3917 118.531 20.3467 118.531 19.1C118.531 17.8167 118.073 16.79 117.156 16.02C116.24 15.2133 114.865 14.81 113.031 14.81C110.135 14.81 108.063 15.9833 106.816 18.33L103.131 16.35C104.048 14.6267 105.368 13.2883 107.091 12.335C108.851 11.345 110.905 10.85 113.251 10.85C116.075 10.85 118.385 11.5283 120.181 12.885C121.978 14.205 122.876 16.075 122.876 18.495C122.876 19.8517 122.546 21.1167 121.886 22.29C121.263 23.4267 120.328 24.2883 119.081 24.875C120.805 25.3883 122.125 26.2867 123.041 27.57C123.958 28.8167 124.416 30.3017 124.416 32.025C124.416 34.665 123.371 36.7183 121.281 38.185C119.228 39.6517 116.588 40.385 113.361 40.385ZM131.276 40V11.345H136.116V33.51L152.176 11.29H156.576V40H151.736V18.275L135.896 40H131.276ZM165.355 40V11.29H170.195V23.17H185.155V11.29H189.995V40H185.155V27.46H170.195V40H165.355ZM196.643 31.695C196.643 29.8617 197.156 28.285 198.183 26.965C199.246 25.6083 200.694 24.5633 202.528 23.83C204.361 23.0967 206.488 22.73 208.908 22.73C210.191 22.73 211.548 22.84 212.978 23.06C214.408 23.2433 215.673 23.5367 216.773 23.94V21.85C216.773 19.65 216.113 17.9267 214.793 16.68C213.473 15.3967 211.603 14.755 209.183 14.755C207.606 14.755 206.084 15.0483 204.618 15.635C203.188 16.185 201.666 16.9917 200.053 18.055L198.293 14.645C200.163 13.3617 202.033 12.4083 203.903 11.785C205.773 11.125 207.716 10.795 209.733 10.795C213.399 10.795 216.296 11.8217 218.423 13.875C220.549 15.8917 221.613 18.715 221.613 22.345V34.5C221.613 35.6367 222.126 36.2233 223.153 36.26V40C222.676 40.0733 222.254 40.1283 221.888 40.165C221.558 40.2017 221.283 40.22 221.063 40.22C219.926 40.22 219.064 39.9083 218.478 39.285C217.928 38.6617 217.616 38.0017 217.543 37.305L217.433 35.49C216.186 37.1033 214.554 38.35 212.538 39.23C210.521 40.11 208.523 40.55 206.543 40.55C204.636 40.55 202.931 40.165 201.428 39.395C199.924 38.5883 198.751 37.525 197.908 36.205C197.064 34.8483 196.643 33.345 196.643 31.695ZM215.343 33.73C215.783 33.2167 216.131 32.7033 216.388 32.19C216.644 31.64 216.773 31.1817 216.773 30.815V27.24C214.426 26.3233 212.006 25.865 209.513 25.865C207.056 25.865 205.058 26.36 203.518 27.35C202.014 28.3033 201.263 29.6233 201.263 31.31C201.263 32.2267 201.501 33.125 201.978 34.005C202.491 34.8483 203.224 35.545 204.178 36.095C205.168 36.645 206.378 36.92 207.808 36.92C209.311 36.92 210.741 36.6267 212.098 36.04C213.454 35.4167 214.536 34.6467 215.343 33.73Z" fill="black"/>
</svg>
